<?xml version="1.0" encoding="UTF-8"?>
<!DOCTYPE svg PUBLIC "-//W3C//DTD SVG 1.1//EN" "http://www.w3.org/Graphics/SVG/1.1/DTD/svg11.dtd">
<!-- Creator: CorelDRAW X8 -->
<svg xmlns="http://www.w3.org/2000/svg" xml:space="preserve" width="70px" height="28px" version="1.1" style="shape-rendering:geometricPrecision; text-rendering:geometricPrecision; image-rendering:optimizeQuality; fill-rule:evenodd; clip-rule:evenodd"
viewBox="0 0 4213 1903"
 xmlns:xlink="http://www.w3.org/1999/xlink">
 <defs>
  <style type="text/css">
   <![CDATA[
    .fil0 {fill:#FEFEFE;fill-rule:nonzero}
    .fil1 {fill:#E94C3C;fill-rule:nonzero}
    .fil2 {fill:#F54029;fill-rule:nonzero}
   ]]>
  </style>
 </defs>
 <g id="Ebene_x0020_1">
  <metadata id="CorelCorpID_0Corel-Layer"/>
  <polygon class="fil0" points="69,1834 4144,1834 4144,69 69,69 "/>
  <polygon class="fil1" points="69,1834 69,1903 4213,1903 4213,0 0,0 0,1903 69,1903 69,1834 139,1834 139,139 4074,139 4074,1765 69,1765 69,1834 139,1834 "/>
  <polygon class="fil2" points="410,839 703,839 703,1198 839,1198 839,836 993,836 993,1198 1131,1198 1131,839 1265,839 1265,1198 1402,1198 1402,701 632,701 1278,303 2319,949 2135,1063 1690,1063 1690,701 1551,701 1551,1198 1920,1198 1278,1600 231,949 "/>
  <path class="fil0" d="M3946 1572c0,30 -24,54 -54,54l-1339 0c-29,0 -53,-24 -53,-54l0 -1232c0,-29 24,-53 53,-53l1339 0c30,0 54,24 54,53l0 1232z"/>
  <path class="fil2" d="M2553 325l-16 16 0 1232 16 15 1339 0 16 -15 0 -1232 -16 -16 -1339 0zm1339 1339l-1339 0c-50,0 -91,-41 -91,-91l0 -1232c0,-51 41,-92 91,-92l1339 0c51,0 92,41 92,92l0 1232c0,50 -41,91 -92,91z"/>
  <path class="fil1" d="M3062 1155c0,39 6,72 19,98 23,48 66,72 129,72 38,0 71,-14 100,-40 28,-26 42,-64 42,-113 0,-65 -26,-108 -79,-130 -30,-12 -77,-19 -141,-19l0 -139c63,-1 107,-7 131,-18 44,-19 65,-58 65,-116 0,-38 -11,-69 -33,-93 -22,-23 -53,-35 -93,-35 -45,0 -79,15 -101,44 -22,29 -32,68 -31,117l-181 0c1,-50 10,-96 25,-140 16,-39 41,-75 75,-108 25,-23 55,-41 90,-53 35,-12 79,-18 129,-18 95,0 171,24 229,73 58,49 87,115 87,197 0,58 -17,107 -52,148 -22,24 -44,42 -68,51 18,0 43,15 76,45 50,46 75,109 75,189 0,84 -29,157 -87,221 -58,63 -144,95 -258,95 -140,0 -237,-46 -292,-137 -28,-49 -44,-113 -47,-191l191 0z"/>
 </g>
</svg>
